nColumns=19
nRows=114
DataType=double
version=3
OpenSimVersion=4.1
endheader
time	ground_force_calcn_r_vx	ground_force_calcn_r_vy	ground_force_calcn_r_vz	ground_force_calcn_r_px	ground_force_calcn_r_py	ground_force_calcn_r_pz	ground_force_calcn_r_mx	ground_force_calcn_r_my	ground_force_calcn_r_mz	ground_force_calcn_l_vx	ground_force_calcn_l_vy	ground_force_calcn_l_vz	ground_force_calcn_l_px	ground_force_calcn_l_py	ground_force_calcn_l_pz	ground_force_calcn_l_mx	ground_force_calcn_l_my	ground_force_calcn_l_mz
0.43	-36.949	112.854	-9.68423	0.960669	0	-0.275742	-0.374498	1.14384	-0.0981549	0	0	0	0	0	0	0	0	0
0.44	-42.239	266.885	-14.6295	0.938369	0	-0.292247	0.0358953	-0.226802	0.0124323	0	0	0	0	0	0	0	0	0
0.45	-36.1823	514.081	-5.97748	0.928942	0	-0.295532	0.0280724	-0.398855	0.00463769	0	0	0	0	0	0	0	0	0
0.46	-49.1323	783.676	14.0854	0.922876	0	-0.296147	-0.0132129	0.210751	0.00378792	0	0	0	0	0	0	0	0	0
0.47	-94.5948	971.218	24.2202	0.917725	0	-0.295954	-0.047191	0.484516	0.0120828	0	0	0	0	0	0	0	0	0
0.48	-145.469	1060.07	6.87251	0.910652	0	-0.295263	-0.0225799	0.164547	0.00106676	0	0	0	0	0	0	0	0	0
0.49	-173.139	1127.27	-25.0103	0.898649	0	-0.293989	0.0350073	-0.227925	0.00505688	0	0	0	0	0	0	0	0	0
0.5	-170.545	1224.3	-38.9926	0.880957	0	-0.292194	0.0374936	-0.269157	0.00857238	0	0	0	0	0	0	0	0	0
0.51	-154.693	1333.49	-36.3818	0.85984	0	-0.290255	0.005696	-0.0491007	0.00133962	0	0	0	0	0	0	0	0	0
0.52	-133.447	1419.91	-44.7957	0.838036	0	-0.288568	-0.00798265	0.0849372	-0.00267962	0	0	0	0	0	0	0	0	0
0.53	-106.522	1475.05	-65.3433	0.816708	0	-0.287173	0.00399345	-0.0552991	0.00244969	0	0	0	0	0	0	0	0	0
0.54	-77.0124	1504.49	-74.6569	0.795772	0	-0.28588	0.0200613	-0.391911	0.0194477	0	0	0	0	0	0	0	0	0
0.55	-48.1139	1506.19	-70.4078	0.774778	0	-0.284584	0.0237576	-0.743727	0.0347659	0	0	0	0	0	0	0	0	0
0.56	-20.2734	1476.98	-68.251	0.753282	0	-0.283379	0.0137147	-0.999158	0.0461708	0	0	0	0	0	0	0	0	0
0.57	8.61745	1421.68	-68.9605	0.730989	0	-0.282455	-0.00722021	-1.19117	0.0577792	0	0	0	0	0	0	0	0	0
0.58	39.8295	1347.49	-62.3747	0.707848	0	-0.281991	-0.0432864	-1.46444	0.0677884	0	0	0	0	0	0	0	0	0
0.59	70.9544	1254.48	-46.2476	0.684031	0	-0.282104	-0.11117	-1.96551	0.0724601	0	0	0	0	0	0	0	0	0
0.6	99.1697	1139.48	-29.1893	0.659773	0	-0.282816	-0.238374	-2.73896	0.0701623	0	0	0	0	0	0	0	0	0
0.61	123.158	1004.45	-16.721	0.635339	0	-0.284024	-0.451104	-3.67911	0.0612458	0	0	0	0	0	0	0	0	0
0.62	139.638	856.26	-5.78499	0.611111	0	-0.285469	-0.735119	-4.50776	0.0304549	0	0	0	0	0	0	0	0	0
0.63	143.506	702.07	4.81498	0.587313	0	-0.286726	-0.983255	-4.81035	-0.0329906	0	0	0	0	0	0	0	0	0
0.64	133.739	548.748	9.86327	0.563306	0	-0.28719	-1.03389	-4.2422	-0.0762499	0	0	0	0	0	0	0	0	0
0.65	115.578	404.379	6.71287	0.537168	0	-0.286025	-0.816287	-2.85599	-0.0474108	0	0	0	0	0	0	0	0	0
0.66	95.8863	278.527	0.828561	0.506918	0	-0.281997	-0.440847	-1.28056	-0.00380939	0	0	0	0	0	0	0	0	0
0.67	76.0085	178.56	-1.31584	0.474262	0	-0.273859	-0.202287	-0.475214	0.00350195	0	0	0	0	0	0	0	0	0
0.68	53.5423	105.934	0.520713	0.453556	0	-0.263533	-0.509959	-1.00896	-0.00495949	0	0	0	0	0	0	0	0	0
0.69	31.3317	56.7184	1.99825	0.495706	0	-0.263877	-1.39809	-2.5309	-0.0891661	0	0	0	0	0	0	0	0	0
0.7	0	0	0	0	0	0	0	0	0	0	0	0	0	0	0	0	0	0
0.71	0	0	0	0	0	0	0	0	0	0	0	0	0	0	0	0	0	0
0.72	0	0	0	0	0	0	0	0	0	0	0	0	0	0	0	0	0	0
0.73	0	0	0	0	0	0	0	0	0	0	0	0	0	0	0	0	0	0
0.74	0	0	0	0	0	0	0	0	0	0	0	0	0	0	0	0	0	0
0.75	0	0	0	0	0	0	0	0	0	0	0	0	0	0	0	0	0	0
0.76	0	0	0	0	0	0	0	0	0	-30.1908	95.3458	-2.13699	0.932106	0	-0.390064	-0.562994	1.778	-0.0398504
0.77	0	0	0	0	0	0	0	0	0	-22.6407	205.046	0.0522547	0.929804	0	-0.390346	0.106503	-0.964544	-0.000245809
0.78	0	0	0	0	0	0	0	0	0	0.0505997	366.647	6.57107	0.924386	0	-0.392275	-0.00016445	-1.19161	-0.0213561
0.79	0	0	0	0	0	0	0	0	0	2.31258	534.979	11.1433	0.920718	0	-0.393704	-2.14181e-05	-0.00495476	-0.000103205
0.8	0	0	0	0	0	0	0	0	0	-39.3695	664.789	8.52215	0.918861	0	-0.39616	-0.0545028	0.920328	0.011798
0.81	0	0	0	0	0	0	0	0	0	-103.25	765.933	4.43989	0.915341	0	-0.399186	-0.121609	0.902122	0.00522934
0.82	0	0	0	0	0	0	0	0	0	-148.749	881.602	11.095	0.905727	0	-0.401506	-0.0275791	0.163455	0.00205708
0.83	0	0	0	0	0	0	0	0	0	-158.511	1034.48	28.2801	0.889203	0	-0.402624	0.131737	-0.85975	-0.0235035
0.84	0	0	0	0	0	0	0	0	0	-147.298	1202.16	43.5153	0.868973	0	-0.403076	0.223546	-1.82446	-0.066041
0.85	0	0	0	0	0	0	0	0	0	-131.194	1345.38	49.5915	0.848148	0	-0.403598	0.239822	-2.45934	-0.0906529
0.86	0	0	0	0	0	0	0	0	0	-112.682	1444.71	50.9624	0.827626	0	-0.404514	0.204395	-2.62056	-0.092441
0.87	0	0	0	0	0	0	0	0	0	-89.7624	1502.58	57.1106	0.806975	0	-0.405729	0.1421	-2.37868	-0.0904098
0.88	0	0	0	0	0	0	0	0	0	-62.1756	1525.61	66.3869	0.785604	0	-0.407	0.0811846	-1.99203	-0.0866834
0.89	0	0	0	0	0	0	0	0	0	-29.9129	1515.82	68.1236	0.763258	0	-0.408098	0.0338872	-1.71721	-0.0771747
0.9	0	0	0	0	0	0	0	0	0	4.75796	1475.65	62.3624	0.739996	0	-0.408775	-0.00513588	-1.59286	-0.0673159
0.91	0	0	0	0	0	0	0	0	0	40.0511	1409.04	56.961	0.715961	0	-0.408773	-0.0391766	-1.37827	-0.0557173
0.92	0	0	0	0	0	0	0	0	0	75.2562	1316.76	50.8188	0.691224	0	-0.407927	-0.0430943	-0.75402	-0.0291006
0.93	0	0	0	0	0	0	0	0	0	107.444	1198.14	36.7129	0.665953	0	-0.406245	0.0263849	0.294228	0.00901557
0.94	0	0	0	0	0	0	0	0	0	132.67	1058.83	16.6778	0.640674	0	-0.403843	0.159603	1.27378	0.0200635
0.95	0	0	0	0	0	0	0	0	0	147.917	908.347	2.45047	0.616235	0	-0.400933	0.247193	1.51799	0.00409512
0.96	0	0	0	0	0	0	0	0	0	151.471	753.796	-1.19364	0.59342	0	-0.397893	0.169206	0.842058	-0.0013334
0.97	0	0	0	0	0	0	0	0	0	142.901	600.825	-2.53959	0.572366	0	-0.395257	-0.0504227	-0.212001	0.000896094
0.98	0	0	0	0	0	0	0	0	0	125.922	456.624	-7.02231	0.55181	0	-0.39346	-0.242047	-0.877719	0.0134982
0.99	0	0	0	0	0	0	0	0	0	106.67	327.876	-10.1243	0.528852	0	-0.392496	-0.286282	-0.879959	0.0271718
1	0	0	0	0	0	0	0	0	0	89.2629	219.348	-8.16122	0.499489	0	-0.391673	-0.260306	-0.639655	0.0237995
1.01	0	0	0	0	0	0	0	0	0	70.1885	135.136	-3.81707	0.459679	0	-0.389775	-0.409286	-0.788009	0.0222583
1.02	0	0	0	0	0	0	0	0	0	47.8372	75.7109	-0.962842	0.410577	0	-0.384355	-0.938638	-1.48556	0.0188924
1.03	0	0	0	0	0	0	0	0	0	0	0	0	0	0	0	0	0	0
1.04	0	0	0	0	0	0	0	0	0	0	0	0	0	0	0	0	0	0
1.05	0	0	0	0	0	0	0	0	0	0	0	0	0	0	0	0	0	0
1.06	0	0	0	0	0	0	0	0	0	0	0	0	0	0	0	0	0	0
1.07	0	0	0	0	0	0	0	0	0	0	0	0	0	0	0	0	0	0
1.08	0	0	0	0	0	0	0	0	0	0	0	0	0	0	0	0	0	0
1.09	0	0	0	0	0	0	0	0	0	0	0	0	0	0	0	0	0	0
1.1	0	0	0	0	0	0	0	0	0	0	0	0	0	0	0	0	0	0
1.11	-15.9128	138.224	-11.7686	0.929048	0	-0.346275	-0.0486485	0.422577	-0.0359787	0	0	0	0	0	0	0	0	0
1.12	-13.3877	333.477	-14.8299	0.929647	0	-0.350393	0.00892267	-0.222256	0.00988384	0	0	0	0	0	0	0	0	0
1.13	-20.0473	621.59	3.97161	0.928733	0	-0.350852	-0.00435956	0.135173	0.000863678	0	0	0	0	0	0	0	0	0
1.14	-60.6632	906.51	44.472	0.927638	0	-0.350952	-0.0303977	0.454244	0.0222845	0	0	0	0	0	0	0	0	0
1.15	-121.391	1081.16	71.5314	0.925068	0	-0.351152	-0.0111451	0.0992631	0.00656741	0	0	0	0	0	0	0	0	0
1.16	-168.773	1159.16	48.8413	0.918318	0	-0.351282	0.0859909	-0.590599	-0.024885	0	0	0	0	0	0	0	0	0
1.17	-185.565	1232.39	7.79123	0.905136	0	-0.350841	0.147238	-0.977855	-0.00618203	0	0	0	0	0	0	0	0	0
1.18	-177.544	1337.3	6.80825	0.886094	0	-0.349479	0.109164	-0.822246	-0.00418608	0	0	0	0	0	0	0	0	0
1.19	-159.219	1439.76	26.4159	0.864089	0	-0.347538	0.0373281	-0.337543	-0.00619306	0	0	0	0	0	0	0	0	0
1.2	-131.903	1506.48	12.6821	0.841657	0	-0.345615	-0.0122601	0.140024	0.00117877	0	0	0	0	0	0	0	0	0
1.21	-99.5552	1536.6	-23.1866	0.819754	0	-0.343841	-0.0236655	0.36527	-0.00551175	0	0	0	0	0	0	0	0	0
1.22	-67.1652	1541.12	-33.7563	0.798315	0	-0.342057	-0.00834432	0.191462	-0.00419373	0	0	0	0	0	0	0	0	0
1.23	-36.1721	1519.66	-22.6694	0.776949	0	-0.340323	0.00911565	-0.382965	0.00571287	0	0	0	0	0	0	0	0	0
1.24	-4.84918	1465.47	-22.138	0.755122	0	-0.338971	0.00389406	-1.17683	0.0177776	0	0	0	0	0	0	0	0	0
1.25	26.9659	1382.43	-27.966	0.732304	0	-0.338304	-0.0383431	-1.9657	0.0397652	0	0	0	0	0	0	0	0	0
1.26	59.3931	1281.8	-18.1316	0.708264	0	-0.338404	-0.123391	-2.66297	0.037669	0	0	0	0	0	0	0	0	0
1.27	90.0401	1167.78	1.9249	0.683235	0	-0.339198	-0.254929	-3.30631	-0.00544994	0	0	0	0	0	0	0	0	0
1.28	115.193	1039.07	15.4796	0.657779	0	-0.34048	-0.433647	-3.91159	-0.0582734	0	0	0	0	0	0	0	0	0
1.29	132.18	897.098	22.1114	0.632625	0	-0.341864	-0.643883	-4.37001	-0.107711	0	0	0	0	0	0	0	0	0
1.3	139.383	748.106	27.308	0.608527	0	-0.342802	-0.826469	-4.43589	-0.161922	0	0	0	0	0	0	0	0	0
1.31	134.612	599.306	30.72	0.585916	0	-0.342713	-0.863707	-3.8453	-0.197108	0	0	0	0	0	0	0	0	0
1.32	118.776	457.741	28.2384	0.564288	0	-0.341108	-0.669744	-2.58107	-0.159229	0	0	0	0	0	0	0	0	0
1.33	98.2936	329.268	19.1911	0.54184	0	-0.337585	-0.330011	-1.10548	-0.064432	0	0	0	0	0	0	0	0	0
1.34	79.6988	218.562	9.54719	0.51602	0	-0.331485	-0.091998	-0.25229	-0.0110205	0	0	0	0	0	0	0	0	0
1.35	61.2444	132.241	4.88354	0.485363	0	-0.321703	-0.267803	-0.57825	-0.0213542	0	0	0	0	0	0	0	0	0
1.36	39.993	73.7931	4.09744	0.455186	0	-0.305179	-0.936229	-1.72748	-0.0959204	0	0	0	0	0	0	0	0	0
1.37	0	0	0	0	0	0	0	0	0	0	0	0	0	0	0	0	0	0
1.38	0	0	0	0	0	0	0	0	0	0	0	0	0	0	0	0	0	0
1.39	0	0	0	0	0	0	0	0	0	0	0	0	0	0	0	0	0	0
1.4	0	0	0	0	0	0	0	0	0	0	0	0	0	0	0	0	0	0
1.41	0	0	0	0	0	0	0	0	0	0	0	0	0	0	0	0	0	0
1.42	0	0	0	0	0	0	0	0	0	0	0	0	0	0	0	0	0	0
1.43	0	0	0	0	0	0	0	0	0	0	0	0	0	0	0	0	0	0
1.44	0	0	0	0	0	0	0	0	0	0	0	0	0	0	0	0	0	0
1.45	0	0	0	0	0	0	0	0	0	-9.00166	67.6949	-4.79119	0.991599	0	-0.359233	-0.0250925	0.188702	-0.0133556
1.46	0	0	0	0	0	0	0	0	0	-4.07276	175.539	-9.48613	0.935045	0	-0.38544	0.0260797	-1.12406	0.060744
1.47	0	0	0	0	0	0	0	0	0	1.67683	367.239	-5.48844	0.92622	0	-0.385368	-0.00555077	-1.21566	0.0181682
1.48	0	0	0	0	0	0	0	0	0	-16.2145	615.707	4.51473	0.922637	0	-0.384503	0.0149266	-0.566802	-0.00415613
1.49	0	0	0	0	0	0	0	0	0	-67.5108	850.823	9.92307	0.920374	0	-0.384493	-0.00445977	0.0562055	0.000655519
1.5	0	0	0	0	0	0	0	0	0	-130.217	1020.69	7.48621	0.916608	0	-0.385286	-0.0394688	0.309371	0.00226907
1.51	0	0	0	0	0	0	0	0	0	-173.692	1150.04	-1.08408	0.908582	0	-0.386436	-0.0350102	0.231807	-0.000218512
1.52	0	0	0	0	0	0	0	0	0	-188.944	1287.73	-1.09224	0.895062	0	-0.387469	0.00759252	-0.0517459	4.38903e-05
1.53	0	0	0	0	0	0	0	0	0	-184.87	1425.77	20.6881	0.877066	0	-0.388296	0.0568887	-0.438742	-0.00636621
1.54	0	0	0	0	0	0	0	0	0	-167.382	1527.88	44.4065	0.856488	0	-0.389238	0.0860885	-0.785827	-0.0228394
1.55	0	0	0	0	0	0	0	0	0	-137.155	1581.14	47.7	0.834725	0	-0.390521	0.0803746	-0.926566	-0.0279528
1.56	0	0	0	0	0	0	0	0	0	-102.426	1594.9	43.8092	0.812558	0	-0.392006	0.0507011	-0.789476	-0.0216857
